# xmcd
#
# Track frame offsets:
#	150
#	19482
#	70532
#	97075
#	137059
#	171809
#	209045
#	244182
#
# Disc length: 3904 seconds
#
# Revision: 0
# Processed by: cddbd v1.5.2PL0 Copyright (c) Steve Scherf et al.
# Submitted via: audiograbber 1.83.01
#
DISCID=750f3e08
DTITLE=Grateful Dead - 76-06-14 Beacon Theatre, New York NY
DYEAR=1900
DGENRE=
TTITLE0=Promised Land
TTITLE1=Sugaree
TTITLE2=Cassidy
TTITLE3=Candyman
TTITLE4=The Music Never Stopped
TTITLE5=It Must Have Been The Roses
TTITLE6=Looks Like Rain
TTITLE7=Tennessee Jed
EXTD=
EXTT0=
EXTT1=
EXTT2=
EXTT3=
EXTT4=
EXTT5=
EXTT6=
EXTT7=
PLAYORDER=
